<?xml version="1.0" encoding="utf-8"?>
<!-- Generator: Adobe Illustrator 19.0.1, SVG Export Plug-In . SVG Version: 6.00 Build 0)  -->
<svg version="1.1" id="Layer_1" xmlns="http://www.w3.org/2000/svg" xmlns:xlink="http://www.w3.org/1999/xlink" x="0px" y="0px"
	 viewBox="77.3 8.3 173.9 329" style="enable-background:new 77.3 8.3 173.9 329;" xml:space="preserve">
<path d="M80.3,334.6c1.7,1.8,4.1,2.7,6.6,2.8c2.5,0,4.9-1,6.6-2.8l155.1-155.1c3.6-3.6,3.7-9.4,0.1-13.1c0,0-0.1-0.1-0.1-0.1
	L93.5,11.2c-3.5-3.8-9.4-3.9-13.2-0.4c-3.8,3.5-3.9,9.4-0.4,13.2c0.1,0.2,0.3,0.3,0.4,0.4l148.5,148.5L80.3,321.4
	C76.7,325,76.6,330.9,80.3,334.6C80.3,334.5,80.3,334.5,80.3,334.6z"/>
</svg>
