<svg xmlns="http://www.w3.org/2000/svg" xmlns:xlink="http://www.w3.org/1999/xlink" preserveAspectRatio="xMidYMid" width="6" height="10" viewBox="0 0 6 10">
  <defs>
    <style>

      .cls-2 {
        fill: #3b5998;
      }
    </style>
  </defs>
  <path d="M0.645,9.927 C0.567,9.997 0.471,10.031 0.365,10.031 C0.258,10.031 0.162,9.997 0.084,9.927 C-0.070,9.789 -0.070,9.564 0.084,9.426 C0.084,9.426 5.012,5.018 5.012,5.018 C5.012,5.018 0.084,0.610 0.084,0.610 C-0.070,0.472 -0.070,0.247 0.084,0.108 C0.239,-0.030 0.490,-0.030 0.645,0.108 C0.645,0.108 5.853,4.767 5.853,4.767 C6.007,4.906 6.007,5.130 5.853,5.269 C5.853,5.269 0.645,9.927 0.645,9.927 Z" id="path-1" class="cls-2" fill-rule="evenodd"/>
</svg>
