<svg xmlns="http://www.w3.org/2000/svg" xmlns:xlink="http://www.w3.org/1999/xlink" preserveAspectRatio="xMidYMid" width="17" height="17" viewBox="0 0 17 17">
  <defs>
    <style>

      .cls-2 {
        fill: #f2e9e0;
      }
    </style>
  </defs>
  <path d="M16.322,15.190 C16.322,15.190 15.191,16.322 15.191,16.322 C15.191,16.322 8.156,9.288 8.156,9.288 C8.156,9.288 1.122,16.322 1.122,16.322 C1.122,16.322 -0.009,15.190 -0.009,15.190 C-0.009,15.190 7.025,8.156 7.025,8.156 C7.025,8.156 -0.009,1.122 -0.009,1.122 C-0.009,1.122 1.122,-0.010 1.122,-0.010 C1.122,-0.010 8.156,7.025 8.156,7.025 C8.156,7.025 15.191,-0.010 15.191,-0.010 C15.191,-0.010 16.322,1.122 16.322,1.122 C16.322,1.122 9.288,8.156 9.288,8.156 C9.288,8.156 16.322,15.190 16.322,15.190 Z" id="path-1" class="cls-2" fill-rule="evenodd"/>
</svg>
