<svg xmlns="http://www.w3.org/2000/svg" xmlns:xlink="http://www.w3.org/1999/xlink" preserveAspectRatio="xMidYMid" width="12" height="23" viewBox="0 0 12 23">
  <defs>
    <style>

      .cls-2 {
        fill: #405a93;
      }
    </style>
  </defs>
  <path d="M12.000,3.818 C12.000,3.818 9.825,3.819 9.825,3.819 C8.119,3.819 7.789,4.626 7.789,5.809 C7.789,5.809 7.789,8.420 7.789,8.420 C7.789,8.420 11.856,8.420 11.856,8.420 C11.856,8.420 11.855,12.509 11.855,12.509 C11.855,12.509 7.789,12.509 7.789,12.509 C7.789,12.509 7.789,23.001 7.789,23.001 C7.789,23.001 3.547,23.001 3.547,23.001 C3.547,23.001 3.547,12.509 3.547,12.509 C3.547,12.509 0.000,12.509 0.000,12.509 C0.000,12.509 0.000,8.420 0.000,8.420 C0.000,8.420 3.547,8.420 3.547,8.420 C3.547,8.420 3.547,5.405 3.547,5.405 C3.547,1.905 5.694,-0.000 8.830,-0.000 C8.830,-0.000 12.000,0.005 12.000,0.005 C12.000,0.005 12.000,3.818 12.000,3.818 C12.000,3.818 12.000,3.818 12.000,3.818 Z" id="path-1" class="cls-2" fill-rule="evenodd"/>
</svg>
