<svg xmlns="http://www.w3.org/2000/svg" xmlns:xlink="http://www.w3.org/1999/xlink" preserveAspectRatio="xMidYMid" width="20" height="14" viewBox="0 0 20 14">
  <defs>
    <style>

      .cls-2 {
        fill: #f3f3f3;
      }
    </style>
  </defs>
  <path d="M12.574,6.813 C12.574,6.813 19.194,0.974 19.194,0.974 C19.194,0.974 19.194,12.651 19.194,12.651 C19.194,12.651 12.574,6.813 12.574,6.813 ZM1.084,0.013 C1.084,0.013 18.104,0.013 18.104,0.013 C18.104,0.013 9.594,7.518 9.594,7.518 C9.594,7.518 1.084,0.013 1.084,0.013 ZM-0.006,12.651 C-0.006,12.651 -0.006,0.974 -0.006,0.974 C-0.006,0.974 6.614,6.813 6.614,6.813 C6.614,6.813 -0.006,12.651 -0.006,12.651 ZM9.594,9.441 C9.594,9.441 11.484,7.774 11.484,7.774 C11.484,7.774 18.104,13.613 18.104,13.613 C18.104,13.613 1.084,13.613 1.084,13.613 C1.084,13.613 7.704,7.774 7.704,7.774 C7.704,7.774 9.594,9.441 9.594,9.441 Z" id="path-1" class="cls-2" fill-rule="evenodd"/>
</svg>
