<svg xmlns="http://www.w3.org/2000/svg" xmlns:xlink="http://www.w3.org/1999/xlink" preserveAspectRatio="xMidYMid" width="16" height="22" viewBox="0 0 16 22">
  <defs>
    <style>

      .cls-2 {
        fill: #4C67A1;
      }
    </style>
  </defs>
  <path d="M15.916,21.897 C15.854,21.963 15.769,22.000 15.681,22.000 C15.681,22.000 0.316,22.000 0.316,22.000 C0.227,22.000 0.142,21.963 0.081,21.897 C0.020,21.831 -0.013,21.742 -0.009,21.651 C-0.009,21.651 0.723,5.901 0.723,5.901 C0.731,5.723 0.874,5.583 1.048,5.583 C1.048,5.583 4.158,5.583 4.158,5.583 C4.158,5.583 4.158,3.936 4.158,3.936 C4.158,1.766 5.881,-0.000 7.998,-0.000 C10.116,-0.000 11.838,1.766 11.838,3.936 C11.838,3.936 11.838,5.583 11.838,5.583 C11.838,5.583 14.949,5.583 14.949,5.583 C15.123,5.583 15.266,5.723 15.274,5.901 C15.274,5.901 16.006,21.651 16.006,21.651 C16.010,21.742 15.978,21.831 15.916,21.897 ZM11.188,3.936 C11.188,2.134 9.757,0.667 7.998,0.667 C6.239,0.667 4.808,2.134 4.808,3.936 C4.808,3.936 4.808,5.583 4.808,5.583 C4.808,5.583 11.188,5.583 11.188,5.583 C11.188,5.583 11.188,3.936 11.188,3.936 ZM14.639,6.250 C14.639,6.250 11.838,6.250 11.838,6.250 C11.838,6.250 11.838,7.250 11.838,7.250 C11.838,7.434 11.693,7.583 11.513,7.583 C11.334,7.583 11.188,7.434 11.188,7.250 C11.188,7.250 11.188,6.250 11.188,6.250 C11.188,6.250 4.808,6.250 4.808,6.250 C4.808,6.250 4.808,7.250 4.808,7.250 C4.808,7.434 4.662,7.583 4.483,7.583 C4.304,7.583 4.158,7.434 4.158,7.250 C4.158,7.250 4.158,6.250 4.158,6.250 C4.158,6.250 1.358,6.250 1.358,6.250 C1.358,6.250 0.657,21.333 0.657,21.333 C0.657,21.333 15.339,21.333 15.339,21.333 C15.339,21.333 14.639,6.250 14.639,6.250 Z" id="path-1" class="cls-2" fill-rule="evenodd"/>
</svg>
