<svg xmlns="http://www.w3.org/2000/svg" xmlns:xlink="http://www.w3.org/1999/xlink" preserveAspectRatio="xMidYMid" width="23" height="24" viewBox="0 0 23 24">
  <defs>
    <style>

      .cls-2 {
        fill: #917128;
        stroke: #917128;
        stroke-width: 1px;
      }
    </style>
  </defs>
  <path d="M19.539,11.633 C19.539,11.633 19.539,14.651 19.539,14.651 C19.539,14.651 18.082,14.651 18.082,14.651 C18.082,14.651 18.082,11.633 18.082,11.633 C18.082,11.633 15.137,11.633 15.137,11.633 C15.137,11.633 15.137,10.136 15.137,10.136 C15.137,10.136 18.082,10.136 18.082,10.136 C18.082,10.136 18.082,7.137 18.082,7.137 C18.082,7.137 19.539,7.137 19.539,7.137 C19.539,7.137 19.539,10.136 19.539,10.136 C19.539,10.136 22.500,10.136 22.500,10.136 C22.500,10.136 22.500,11.633 22.500,11.633 C22.500,11.633 19.539,11.633 19.539,11.633 ZM11.485,1.724 C12.162,2.293 13.573,3.493 13.573,5.773 C13.573,7.991 12.338,9.044 11.102,10.032 C10.719,10.422 10.276,10.842 10.276,11.503 C10.276,12.161 10.719,12.521 11.042,12.793 C11.042,12.793 12.103,13.631 12.103,13.631 C13.399,14.740 14.577,15.760 14.576,17.831 C14.576,20.651 11.895,23.499 6.831,23.499 C2.560,23.499 0.500,21.431 0.500,19.210 C0.500,18.131 1.029,16.602 2.767,15.552 C4.592,14.412 7.067,14.262 8.393,14.170 C7.978,13.630 7.509,13.060 7.509,12.132 C7.509,11.622 7.656,11.322 7.802,10.962 C7.478,10.992 7.155,11.022 6.861,11.022 C3.740,11.022 1.973,8.651 1.973,6.312 C1.973,4.933 2.590,3.403 3.856,2.293 C5.536,0.883 7.831,0.501 9.423,0.501 C9.423,0.501 15.224,0.501 15.224,0.501 C15.224,0.501 13.309,1.724 13.309,1.724 C13.309,1.724 11.485,1.724 11.485,1.724 ZM5.624,15.492 C4.976,15.731 3.092,16.451 3.092,18.580 C3.092,20.711 5.124,22.242 8.275,22.242 C11.102,22.242 12.605,20.859 12.604,19.002 C12.604,17.468 11.632,16.661 9.393,15.041 C9.158,15.011 9.011,15.011 8.716,15.011 C8.451,15.011 6.860,15.070 5.624,15.492 ZM7.274,1.634 C6.506,1.634 5.684,2.023 5.211,2.624 C4.710,3.255 4.564,4.062 4.564,4.844 C4.564,6.853 5.712,10.182 8.246,10.182 C8.981,10.182 9.774,9.824 10.247,9.343 C10.925,8.650 10.983,7.692 10.983,7.152 C10.983,4.992 9.716,1.634 7.274,1.634 Z" id="path-1" class="cls-2" fill-rule="evenodd"/>
</svg>
