<svg xmlns="http://www.w3.org/2000/svg" xmlns:xlink="http://www.w3.org/1999/xlink" preserveAspectRatio="xMidYMid" width="14" height="19" viewBox="0 0 14 19">
  <defs>
    <style>

      .cls-2 {
        fill: #ffffff;
      }
    </style>
  </defs>
  <path d="M7.000,0.000 C3.140,0.000 -0.000,3.087 -0.000,6.881 C-0.000,11.590 6.264,18.502 6.531,18.794 C6.782,19.068 7.219,19.068 7.469,18.794 C7.736,18.502 14.000,11.590 14.000,6.881 C14.000,3.087 10.860,0.000 7.000,0.000 ZM7.000,10.343 C5.058,10.343 3.478,8.790 3.478,6.881 C3.478,4.972 5.058,3.419 7.000,3.419 C8.942,3.419 10.522,4.972 10.522,6.881 C10.522,8.790 8.942,10.343 7.000,10.343 Z" id="path-1" class="cls-2" fill-rule="evenodd"/>
</svg>
