<svg xmlns="http://www.w3.org/2000/svg" xmlns:xlink="http://www.w3.org/1999/xlink" preserveAspectRatio="xMidYMid" width="15" height="15" viewBox="0 0 15 15">
  <defs>
    <style>

      .cls-2 {
        fill: #f3f3f3;
      }
    </style>
  </defs>
  <path d="M14.063,11.405 C14.063,11.405 11.839,9.171 11.839,9.171 C11.397,8.728 10.663,8.741 10.205,9.202 C10.205,9.202 9.085,10.327 9.085,10.327 C9.014,10.287 8.941,10.246 8.864,10.203 C8.157,9.809 7.189,9.270 6.170,8.245 C5.148,7.219 4.611,6.245 4.218,5.534 C4.176,5.458 4.136,5.386 4.097,5.317 C4.097,5.317 4.849,4.562 4.849,4.562 C4.849,4.562 5.218,4.191 5.218,4.191 C5.677,3.730 5.690,2.993 5.248,2.549 C5.248,2.549 3.025,0.314 3.025,0.314 C2.583,-0.129 1.849,-0.116 1.390,0.345 C1.390,0.345 0.764,0.979 0.764,0.979 C0.764,0.979 0.781,0.996 0.781,0.996 C0.571,1.265 0.395,1.576 0.265,1.911 C0.144,2.229 0.069,2.534 0.035,2.839 C-0.258,5.284 0.854,7.519 3.872,10.551 C8.044,14.743 11.406,14.426 11.551,14.411 C11.867,14.373 12.170,14.296 12.477,14.176 C12.808,14.047 13.117,13.871 13.385,13.660 C13.385,13.660 13.398,13.672 13.398,13.672 C13.398,13.672 14.033,13.048 14.033,13.048 C14.491,12.586 14.504,11.850 14.063,11.405 Z" id="path-1" class="cls-2" fill-rule="evenodd"/>
</svg>
