<svg xmlns="http://www.w3.org/2000/svg" xmlns:xlink="http://www.w3.org/1999/xlink" preserveAspectRatio="xMidYMid" width="9" height="6" viewBox="0 0 9 6">
  <defs>
    <style>

      .cls-2 {
        fill: #000000;
      }
    </style>
  </defs>
  <path d="M8.869,0.155 C8.660,-0.048 8.322,-0.048 8.113,0.156 C8.113,0.156 3.393,4.761 3.393,4.761 C3.393,4.761 0.909,2.337 0.909,2.337 C0.700,2.133 0.361,2.133 0.153,2.337 C-0.056,2.540 -0.056,2.870 0.153,3.074 C0.153,3.074 3.015,5.867 3.015,5.867 C3.120,5.969 3.256,6.020 3.393,6.020 C3.530,6.020 3.667,5.969 3.771,5.867 C3.771,5.867 8.869,0.893 8.869,0.893 C9.078,0.689 9.078,0.359 8.869,0.155 Z" id="path-1" class="cls-2" fill-rule="evenodd"/>
</svg>
