<svg xmlns="http://www.w3.org/2000/svg" xmlns:xlink="http://www.w3.org/1999/xlink" preserveAspectRatio="xMidYMid" width="30" height="18" viewBox="0 0 30 18">
  <defs>
    <style>

      .cls-2 {
        fill: #2d6556;
        opacity: 0.6;
      }
    </style>
  </defs>
  <path d="M29.732,3.169 C29.232,3.945 28.805,4.757 28.553,5.655 C28.525,5.751 28.519,5.832 28.584,5.927 C29.896,7.835 30.314,9.929 29.766,12.187 C29.285,14.167 28.164,15.711 26.461,16.804 C25.243,17.586 23.898,17.958 22.461,17.966 C21.857,17.970 21.256,17.887 20.667,17.733 C19.230,17.356 17.998,16.630 16.982,15.532 C16.848,15.388 16.722,15.237 16.580,15.074 C16.043,15.884 15.515,16.681 14.974,17.498 C14.435,16.683 13.914,15.894 13.394,15.108 C13.358,15.127 13.348,15.129 13.341,15.136 C13.329,15.146 13.319,15.158 13.309,15.169 C12.081,16.638 10.537,17.537 8.655,17.839 C7.608,18.006 6.571,17.946 5.555,17.662 C4.113,17.262 2.889,16.492 1.900,15.356 C0.933,14.245 0.331,12.957 0.106,11.491 C-0.153,10.123 0.162,8.804 0.240,8.484 C0.468,7.553 0.865,6.699 1.410,5.913 C1.448,5.857 1.461,5.759 1.443,5.692 C1.221,4.868 0.838,4.117 0.390,3.399 C0.276,3.216 0.140,3.047 0.014,2.872 C0.014,2.852 0.014,2.831 0.014,2.810 C0.039,2.814 0.064,2.819 0.089,2.819 C1.597,2.819 3.105,2.820 4.613,2.817 C4.679,2.817 4.752,2.789 4.808,2.753 C5.867,2.065 6.996,1.519 8.182,1.095 C9.038,0.789 9.911,0.551 10.802,0.376 C11.664,0.207 12.532,0.088 13.408,0.030 C15.544,-0.136 17.251,0.092 18.387,0.253 C19.224,0.373 20.044,0.586 20.854,0.838 C22.268,1.279 23.602,1.891 24.858,2.686 C24.945,2.741 25.061,2.776 25.164,2.776 C26.638,2.782 28.112,2.780 29.585,2.781 C29.703,2.781 29.822,2.794 29.940,2.801 C29.940,2.830 29.944,2.842 29.939,2.849 C29.871,2.956 29.801,3.062 29.732,3.169 ZM1.541,10.439 C1.593,13.673 4.226,16.414 7.582,16.385 C10.864,16.356 13.502,13.643 13.508,10.358 C13.513,6.982 10.843,4.278 7.515,4.278 C4.294,4.250 1.485,6.972 1.541,10.439 ZM15.415,1.324 C12.795,1.272 10.246,1.663 7.812,2.697 C9.632,2.809 11.231,3.451 12.581,4.694 C13.929,5.935 14.719,7.484 15.006,9.304 C15.301,7.505 16.069,5.971 17.392,4.743 C18.717,3.513 20.294,2.867 22.084,2.731 C19.960,1.775 17.720,1.369 15.415,1.324 ZM22.355,4.302 C19.085,4.370 16.526,7.038 16.496,10.338 C16.496,13.691 19.183,16.431 22.483,16.418 C25.795,16.405 28.470,13.744 28.468,10.353 C28.466,6.860 25.667,4.234 22.355,4.302 ZM22.624,14.018 C20.474,14.101 18.753,12.366 18.754,10.263 C18.756,8.135 20.488,6.477 22.471,6.513 C24.521,6.509 26.181,8.181 26.181,10.254 C26.181,12.335 24.549,13.943 22.624,14.018 ZM22.481,7.811 C21.138,7.811 20.046,8.905 20.041,10.254 C20.036,11.597 21.134,12.714 22.463,12.717 C23.795,12.722 24.889,11.613 24.888,10.263 C24.887,8.911 23.807,7.811 22.481,7.811 ZM22.481,11.506 C21.793,11.506 21.239,10.956 21.241,10.274 C21.242,9.566 21.779,9.019 22.473,9.018 C23.152,9.018 23.709,9.582 23.702,10.266 C23.695,10.950 23.148,11.506 22.481,11.506 ZM7.611,14.017 C5.453,14.117 3.711,12.374 3.715,10.259 C3.719,8.116 5.464,6.477 7.436,6.513 C9.484,6.510 11.147,8.185 11.142,10.258 C11.136,12.356 9.503,13.929 7.611,14.017 ZM7.403,7.811 C6.094,7.814 4.997,8.933 5.000,10.263 C5.004,11.608 6.099,12.714 7.432,12.718 C8.757,12.721 9.854,11.604 9.851,10.255 C9.847,8.894 8.760,7.809 7.403,7.811 ZM7.433,11.518 C6.731,11.520 6.189,10.971 6.189,10.256 C6.189,9.553 6.730,9.008 7.429,9.007 C8.119,9.007 8.673,9.564 8.676,10.260 C8.679,10.950 8.119,11.517 7.433,11.518 Z" id="path-1" class="cls-2" fill-rule="evenodd"/>
</svg>
