<svg xmlns="http://www.w3.org/2000/svg" xmlns:xlink="http://www.w3.org/1999/xlink" preserveAspectRatio="xMidYMid" width="19" height="25" viewBox="0 0 19 25">
  <defs>
    <style>

      .cls-2 {
        fill: #ffffff;
        stroke: #74201c;
        stroke-width: 1px;
        opacity: 0.6;
      }
    </style>
  </defs>
  <path d="M17.543,12.688 C15.885,13.120 14.221,13.534 12.559,13.952 C12.459,13.977 12.355,13.983 12.272,13.995 C11.820,13.982 11.511,13.765 11.313,13.392 C11.119,13.025 11.137,12.661 11.388,12.318 C12.420,10.901 13.446,9.479 14.486,8.068 C14.931,7.464 15.416,7.406 15.966,7.923 C16.989,8.885 17.753,10.040 18.242,11.363 C18.507,12.080 18.272,12.498 17.543,12.688 ZM7.961,11.698 C7.730,11.495 7.532,11.238 7.367,10.975 C5.783,8.457 4.209,5.934 2.635,3.410 C2.180,2.681 2.270,2.241 3.033,1.850 C4.543,1.074 6.148,0.605 7.842,0.502 C8.650,0.453 8.933,0.728 8.989,1.536 C9.188,4.422 9.376,7.308 9.575,10.299 C9.546,10.550 9.549,10.913 9.458,11.249 C9.257,11.984 8.534,12.200 7.961,11.698 ZM7.514,14.799 C7.493,15.287 7.254,15.596 6.742,15.761 C5.098,16.291 3.454,16.823 1.805,17.339 C1.149,17.545 0.736,17.318 0.589,16.633 C0.418,15.249 0.522,13.298 0.692,12.534 C0.881,11.689 1.345,11.478 2.137,11.799 C3.703,12.434 5.265,13.079 6.826,13.726 C7.319,13.930 7.536,14.284 7.514,14.799 ZM7.659,17.534 C7.978,17.155 8.403,17.071 8.861,17.255 C9.290,17.427 9.487,17.727 9.490,18.239 C9.494,19.120 9.491,20.002 9.491,20.884 C9.482,20.884 9.472,20.884 9.462,20.884 C9.462,21.766 9.470,22.648 9.460,23.530 C9.452,24.199 9.113,24.555 8.458,24.490 C6.996,24.343 5.647,23.839 4.437,22.999 C3.889,22.618 3.845,22.129 4.269,21.612 C5.390,20.246 6.523,18.889 7.659,17.534 ZM12.773,16.107 C14.473,16.676 16.170,17.253 17.868,17.828 C18.255,17.960 18.476,18.216 18.501,18.659 C18.421,18.893 18.367,19.140 18.258,19.359 C17.694,20.485 16.929,21.457 15.992,22.289 C15.848,22.417 15.680,22.528 15.506,22.611 C15.098,22.809 14.719,22.727 14.481,22.345 C13.496,20.769 12.521,19.186 11.559,17.594 C11.312,17.185 11.438,16.778 11.725,16.428 C12.001,16.094 12.359,15.968 12.773,16.107 Z" id="path-1" class="cls-2" fill-rule="evenodd"/>
</svg>
